<svg width="76" height="52" viewBox="0 0 76 52" fill="none" xmlns="http://www.w3.org/2000/svg">
<circle cx="15.5" cy="7.5" r="7.5" fill="#FFD700"/>
<circle cx="60.5" cy="7.5" r="7.5" fill="#FFD700"/>
<path d="M41.3668 38.7517C39.7928 41.2053 36.2072 41.2053 34.6332 38.7517L28.9611 29.9098C27.2533 27.2476 29.165 23.75 32.3279 23.75H43.6721C46.835 23.75 48.7467 27.2476 47.0389 29.9098L41.3668 38.7517Z" fill="#FFD700"/>
<path d="M37.8243 34.2553C40.133 34.2217 42.0919 36.0931 41.4929 38.323C40.6568 41.4349 38.8083 44.3247 36.1061 46.6565C32.2372 49.9952 26.9352 51.9163 21.3665 51.9973C15.7978 52.0783 10.4186 50.3126 6.41217 47.0884C3.62739 44.8474 1.66444 42.0294 0.693642 38.9608C-0.00914508 36.7394 1.89973 34.7778 4.22943 34.7439V34.7439C6.53814 34.7104 8.37666 36.6387 9.44453 38.6859C10.0981 39.9389 11.0451 41.0856 12.2473 42.0531C14.6511 43.9875 17.8787 45.047 21.2199 44.9984C24.5611 44.9498 27.7423 43.7971 30.0637 41.7939C31.2067 40.8076 32.0952 39.6548 32.6956 38.4062C33.7055 36.3065 35.4946 34.2892 37.8243 34.2553V34.2553Z" fill="#FFD700"/>
<path d="M71.8243 34.2553C74.133 34.2217 76.0919 36.0931 75.4929 38.323C74.6568 41.4349 72.8083 44.3247 70.1061 46.6565C66.2372 49.9952 60.9352 51.9163 55.3665 51.9973C49.7978 52.0783 44.4186 50.3126 40.4122 47.0884C37.6274 44.8474 35.6644 42.0294 34.6936 38.9608C33.9909 36.7394 35.8997 34.7778 38.2294 34.7439V34.7439C40.5381 34.7104 42.3767 36.6387 43.4445 38.6859C44.0981 39.9389 45.0451 41.0856 46.2473 42.0531C48.6511 43.9875 51.8787 45.047 55.2199 44.9984C58.5611 44.9498 61.7423 43.7971 64.0637 41.7939C65.2067 40.8076 66.0952 39.6548 66.6956 38.4062C67.7055 36.3065 69.4946 34.2892 71.8243 34.2553V34.2553Z" fill="#FFD700"/>
</svg>
